<svg width="792" height="486" xmlns="http://www.w3.org/2000/svg">
 <defs>
  <radialGradient gradientUnits="userSpaceOnUse" r="0.18" cy="176.5096" cx="342.8488" id="SVGID_1_">
   <stop stop-color="#FFFFFF" offset="0"/>
   <stop stop-color="#ECEBEB" offset="0.7927"/>
   <stop stop-color="#E7E7E7" offset="1"/>
  </radialGradient>
  <radialGradient gradientUnits="userSpaceOnUse" r="0.0313" cy="176.8044" cx="342.8001" id="SVGID_2_">
   <stop stop-color="#FFFFFF" offset="0"/>
   <stop stop-color="#ECEBEB" offset="0.7927"/>
   <stop stop-color="#E7E7E7" offset="1"/>
  </radialGradient>
  <radialGradient gradientUnits="userSpaceOnUse" r="0.0372" cy="176.8999" cx="342.7843" id="SVGID_3_">
   <stop stop-color="#FFFFFF" offset="0"/>
   <stop stop-color="#ECEBEB" offset="0.7927"/>
   <stop stop-color="#E7E7E7" offset="1"/>
  </radialGradient>
  <radialGradient gradientUnits="userSpaceOnUse" r="0.0047" cy="177.2406" cx="342.7283" id="SVGID_4_">
   <stop stop-color="#FFFFFF" offset="0"/>
   <stop stop-color="#ECEBEB" offset="0.7927"/>
   <stop stop-color="#E7E7E7" offset="1"/>
  </radialGradient>
  <radialGradient gradientUnits="userSpaceOnUse" r="0.0725" cy="177.1328" cx="342.7461" id="SVGID_5_">
   <stop stop-color="#FFFFFF" offset="0"/>
   <stop stop-color="#ECEBEB" offset="0.7927"/>
   <stop stop-color="#E7E7E7" offset="1"/>
  </radialGradient>
  <radialGradient gradientUnits="userSpaceOnUse" r="0.0286" cy="176.9917" cx="342.7693" id="SVGID_6_">
   <stop stop-color="#FFFFFF" offset="0"/>
   <stop stop-color="#ECEBEB" offset="0.7927"/>
   <stop stop-color="#E7E7E7" offset="1"/>
  </radialGradient>
  <radialGradient gradientUnits="userSpaceOnUse" r="0.0249" cy="176.2238" cx="342.8959" id="SVGID_7_">
   <stop stop-color="#FFFFFF" offset="0"/>
   <stop stop-color="#ECEBEB" offset="0.7927"/>
   <stop stop-color="#E7E7E7" offset="1"/>
  </radialGradient>
  <radialGradient gradientUnits="userSpaceOnUse" r="0.0192" cy="175.955" cx="342.9402" id="SVGID_8_">
   <stop stop-color="#FFFFFF" offset="0"/>
   <stop stop-color="#ECEBEB" offset="0.7927"/>
   <stop stop-color="#E7E7E7" offset="1"/>
  </radialGradient>
  <radialGradient gradientUnits="userSpaceOnUse" r="0.081" cy="177.3602" cx="342.7086" id="SVGID_9_">
   <stop stop-color="#FFFFFF" offset="0"/>
   <stop stop-color="#ECEBEB" offset="0.7927"/>
   <stop stop-color="#E7E7E7" offset="1"/>
  </radialGradient>
  <radialGradient gradientUnits="userSpaceOnUse" r="0.0107" cy="175.9133" cx="342.947" id="SVGID_10_">
   <stop stop-color="#FFFFFF" offset="0"/>
   <stop stop-color="#ECEBEB" offset="0.7927"/>
   <stop stop-color="#E7E7E7" offset="1"/>
  </radialGradient>
  <radialGradient gradientUnits="userSpaceOnUse" r="0.0042" cy="175.9878" cx="342.9348" id="SVGID_11_">
   <stop stop-color="#FFFFFF" offset="0"/>
   <stop stop-color="#ECEBEB" offset="0.7927"/>
   <stop stop-color="#E7E7E7" offset="1"/>
  </radialGradient>
  <radialGradient gradientUnits="userSpaceOnUse" r="0.0223" cy="176.0248" cx="342.9286" id="SVGID_12_">
   <stop stop-color="#FFFFFF" offset="0"/>
   <stop stop-color="#ECEBEB" offset="0.7927"/>
   <stop stop-color="#E7E7E7" offset="1"/>
  </radialGradient>
  <radialGradient gradientUnits="userSpaceOnUse" r="0.0477" cy="176.1225" cx="342.9126" id="SVGID_13_">
   <stop stop-color="#FFFFFF" offset="0"/>
   <stop stop-color="#ECEBEB" offset="0.7927"/>
   <stop stop-color="#E7E7E7" offset="1"/>
  </radialGradient>
  <radialGradient gradientUnits="userSpaceOnUse" r="0.0429" cy="178.7271" cx="342.4833" id="SVGID_14_">
   <stop stop-color="#FFFFFF" offset="0"/>
   <stop stop-color="#ECEBEB" offset="0.7927"/>
   <stop stop-color="#E7E7E7" offset="1"/>
  </radialGradient>
  <radialGradient gradientUnits="userSpaceOnUse" r="0.012" cy="179.3649" cx="342.3782" id="SVGID_15_">
   <stop stop-color="#FFFFFF" offset="0"/>
   <stop stop-color="#ECEBEB" offset="0.7927"/>
   <stop stop-color="#E7E7E7" offset="1"/>
  </radialGradient>
  <radialGradient gradientUnits="userSpaceOnUse" r="0.1401" cy="179.1526" cx="342.4132" id="SVGID_16_">
   <stop stop-color="#FFFFFF" offset="0"/>
   <stop stop-color="#ECEBEB" offset="0.7927"/>
   <stop stop-color="#E7E7E7" offset="1"/>
  </radialGradient>
  <radialGradient gradientUnits="userSpaceOnUse" r="0.0011" cy="179.3832" cx="342.3752" id="SVGID_17_">
   <stop stop-color="#FFFFFF" offset="0"/>
   <stop stop-color="#ECEBEB" offset="0.7927"/>
   <stop stop-color="#E7E7E7" offset="1"/>
  </radialGradient>
  <radialGradient gradientUnits="userSpaceOnUse" r="0.0052" cy="179.392" cx="342.3737" id="SVGID_18_">
   <stop stop-color="#FFFFFF" offset="0"/>
   <stop stop-color="#ECEBEB" offset="0.7927"/>
   <stop stop-color="#E7E7E7" offset="1"/>
  </radialGradient>
  <radialGradient gradientUnits="userSpaceOnUse" r="0.0127" cy="178.9394" cx="342.4483" id="SVGID_19_">
   <stop stop-color="#FFFFFF" offset="0"/>
   <stop stop-color="#ECEBEB" offset="0.7927"/>
   <stop stop-color="#E7E7E7" offset="1"/>
  </radialGradient>
  <radialGradient gradientUnits="userSpaceOnUse" r="0.2089" cy="177.7647" cx="342.6419" id="SVGID_20_">
   <stop stop-color="#FFFFFF" offset="0"/>
   <stop stop-color="#ECEBEB" offset="0.7927"/>
   <stop stop-color="#E7E7E7" offset="1"/>
  </radialGradient>
  <radialGradient gradientUnits="userSpaceOnUse" r="0.0079" cy="178.3266" cx="342.5493" id="SVGID_21_">
   <stop stop-color="#FFFFFF" offset="0"/>
   <stop stop-color="#ECEBEB" offset="0.7927"/>
   <stop stop-color="#E7E7E7" offset="1"/>
  </radialGradient>
  <radialGradient gradientUnits="userSpaceOnUse" r="0.0929" cy="178.1859" cx="342.5725" id="SVGID_22_">
   <stop stop-color="#FFFFFF" offset="0"/>
   <stop stop-color="#ECEBEB" offset="0.7927"/>
   <stop stop-color="#E7E7E7" offset="1"/>
  </radialGradient>
  <radialGradient gradientUnits="userSpaceOnUse" r="0.0432" cy="178.3978" cx="342.5375" id="SVGID_23_">
   <stop stop-color="#FFFFFF" offset="0"/>
   <stop stop-color="#ECEBEB" offset="0.7927"/>
   <stop stop-color="#E7E7E7" offset="1"/>
  </radialGradient>
  <radialGradient gradientUnits="userSpaceOnUse" r="0.0483" cy="178.8544" cx="342.4624" id="SVGID_24_">
   <stop stop-color="#FFFFFF" offset="0"/>
   <stop stop-color="#ECEBEB" offset="0.7927"/>
   <stop stop-color="#E7E7E7" offset="1"/>
  </radialGradient>
  <radialGradient gradientUnits="userSpaceOnUse" r="0.0749" cy="178.5626" cx="342.5103" id="SVGID_25_">
   <stop stop-color="#FFFFFF" offset="0"/>
   <stop stop-color="#ECEBEB" offset="0.7927"/>
   <stop stop-color="#E7E7E7" offset="1"/>
  </radialGradient>
 </defs>
 <g>
  <title>background</title>
  <rect fill="none" id="canvas_background" height="488" width="794" y="-1" x="-1"/>
 </g>
 <g>
  <title>Layer 1</title>
  <rect stroke="#000000" height="485.999988" width="792.312" stroke-miterlimit="10" fill="#4c4c4c" y="0" x="0.596" id="background"/>
  <path id="svg_1" d="m334.318,110.147" fill="#F7C3A0"/>
  <g id="chest">
   <path id="svg_2" d="m467.386,223.321c2.882,-10.447 5.764,-21.974 1.801,-31.701c-2.522,-5.403 -6.844,-10.086 -11.887,-14.049c-1.441,-1.441 -3.603,-4.323 -2.162,-6.484c1.801,-2.522 5.044,-5.764 3.242,-7.925c-7.564,-9.129 -39.456,-38.662 -48.961,-45.088c-4.881,0.553 -44.36,35.54 -51.678,42.994c-4.323,3.602 1.574,8.578 1.574,12.18c0,3.963 -3.962,7.565 -6.124,11.528c-10.087,19.093 -8.286,43.228 11.888,57.638c1.007,0.755 1.969,2.302 2.611,4.025l3.717,2.674c0.465,-2.572 0.575,-5.208 1.958,-7.419c12.248,-20.173 40.346,-23.415 59.799,-16.211c8.33,3.239 13.83,11.088 16.035,20.105c0.351,-0.255 0.704,-0.511 1.058,-0.77c7.54,-5.491 13.312,-10.412 17.655,-14.527c-0.749,-2.295 -1.158,-4.598 -0.526,-6.97z" fill="#0271B9"/>
   <path id="svg_3" d="m365.079,242.414c-20.173,-14.41 -21.974,-38.545 -11.888,-57.638c2.161,-3.963 6.124,-7.565 6.124,-11.528c0,-3.602 -3.045,-5.423 1.278,-9.025c4.323,-3.963 7.571,-8.234 10.814,-13.277c1.723,-2.513 4.068,-5.519 6.018,-7.732c-6.116,4.149 -30.571,28.186 -30.571,28.186s-4.133,27.304 -5.92,43.799c-1.786,16.495 16.807,24.082 16.807,24.082l9.949,7.157c-0.643,-1.723 -1.604,-3.269 -2.611,-4.024z" fill="#0069A1"/>
   <g id="svg_4">
    <path id="svg_5" d="m342.89,176.258c-0.029,0.177 -0.057,0.343 -0.083,0.502c0.032,-0.191 0.06,-0.362 0.083,-0.502z" fill="url(#SVGID_1_)"/>
    <path id="svg_6" d="m342.807,176.761c-0.005,0.029 -0.009,0.058 -0.014,0.087c0.005,-0.028 0.01,-0.058 0.014,-0.087z" fill="url(#SVGID_2_)"/>
    <path id="svg_7" d="m342.793,176.848c-0.006,0.035 -0.011,0.07 -0.017,0.104c0.006,-0.035 0.011,-0.07 0.017,-0.104z" fill="url(#SVGID_3_)"/>
    <path id="svg_8" d="m342.729,177.234c-0.001,0.004 -0.001,0.009 -0.002,0.013c0.001,-0.004 0.002,-0.008 0.002,-0.013z" fill="url(#SVGID_4_)"/>
    <path id="svg_9" d="m342.763,177.032c-0.011,0.069 -0.023,0.137 -0.033,0.202c0.011,-0.069 0.022,-0.136 0.033,-0.202z" fill="url(#SVGID_5_)"/>
    <path id="svg_10" d="m342.776,176.952c-0.004,0.026 -0.009,0.053 -0.013,0.08c0.004,-0.027 0.008,-0.053 0.013,-0.08z" fill="url(#SVGID_6_)"/>
    <path id="svg_11" d="m342.902,176.189c-0.004,0.022 -0.007,0.045 -0.011,0.069c0.003,-0.022 0.007,-0.046 0.011,-0.069z" fill="url(#SVGID_7_)"/>
    <path id="svg_12" d="m342.945,175.928c-0.002,0.014 -0.005,0.031 -0.009,0.054c0.003,-0.018 0.006,-0.035 0.009,-0.054z" fill="url(#SVGID_8_)"/>
    <path id="svg_13" d="m342.727,177.247c-0.013,0.077 -0.025,0.154 -0.037,0.226c0.012,-0.076 0.025,-0.151 0.037,-0.226z" fill="url(#SVGID_9_)"/>
    <path id="svg_14" d="m342.949,175.898c-0.002,0.01 -0.003,0.02 -0.005,0.03c0.004,-0.019 0.005,-0.03 0.005,-0.03z" fill="url(#SVGID_10_)"/>
    <path id="svg_15" d="m342.936,175.982c-0.001,0.004 -0.001,0.008 -0.002,0.012c0,-0.004 0.001,-0.008 0.002,-0.012z" fill="url(#SVGID_11_)"/>
    <path id="svg_16" d="m342.934,175.994c-0.003,0.018 -0.006,0.039 -0.01,0.062c0.003,-0.021 0.006,-0.041 0.01,-0.062z" fill="url(#SVGID_12_)"/>
    <path id="svg_17" d="m342.924,176.056c-0.007,0.045 -0.015,0.09 -0.022,0.133c0.008,-0.05 0.015,-0.095 0.022,-0.133z" fill="url(#SVGID_13_)"/>
    <path id="svg_18" d="m342.493,178.667c-0.007,0.042 -0.013,0.082 -0.02,0.12c0.007,-0.039 0.013,-0.079 0.02,-0.12z" fill="url(#SVGID_14_)"/>
    <path id="svg_19" d="m342.381,179.348c-0.002,0.014 -0.004,0.025 -0.006,0.034c0.002,-0.009 0.004,-0.02 0.006,-0.034z" fill="url(#SVGID_15_)"/>
    <path id="svg_20" d="m342.445,178.957c-0.03,0.183 -0.053,0.321 -0.064,0.391c0.01,-0.063 0.031,-0.188 0.064,-0.391z" fill="url(#SVGID_16_)"/>
    <path id="svg_21" d="m342.375,179.382c0,0.001 0,0.002 -0.001,0.003c0.001,-0.001 0.001,-0.002 0.001,-0.003z" fill="url(#SVGID_17_)"/>
    <path id="svg_22" d="m387.322,122.97l-45.412,11.878l13.016,9.752l-23.216,5.231l-1.548,29.568l12.788,-3.502c1.298,-7.878 66.468,-57.825 66.468,-57.825l-22.096,4.898z" fill="#6F5848"/>
    <path id="svg_23" d="m437.855,126.505l45.556,13.739l-12.893,9.914l23.279,4.942l1.916,29.546l-12.831,-3.342c-1.396,-7.861 -73.464,-64.056 -73.464,-64.056l28.437,9.257z" fill="#6F5848"/>
    <path id="svg_24" d="m342.375,179.385c-0.003,0.019 -0.003,0.019 0,0l0,0z" fill="url(#SVGID_18_)"/>
    <path id="svg_25" d="m342.451,178.922c-0.002,0.012 -0.004,0.024 -0.006,0.035c0.002,-0.011 0.004,-0.023 0.006,-0.035z" fill="url(#SVGID_19_)"/>
    <path id="svg_26" d="m342.69,177.473c-0.032,0.195 -0.065,0.392 -0.096,0.583c0.029,-0.175 0.06,-0.367 0.096,-0.583z" fill="url(#SVGID_20_)"/>
    <path id="svg_27" d="m342.551,178.316c-0.001,0.007 -0.003,0.015 -0.004,0.022c0.002,-0.008 0.003,-0.015 0.004,-0.022z" fill="url(#SVGID_21_)"/>
    <path id="svg_28" d="m342.594,178.056c-0.015,0.091 -0.029,0.178 -0.043,0.259c0.014,-0.084 0.028,-0.171 0.043,-0.259z" fill="url(#SVGID_22_)"/>
    <path id="svg_29" d="m342.547,178.338c-0.007,0.042 -0.013,0.081 -0.02,0.12c0.007,-0.04 0.014,-0.08 0.02,-0.12z" fill="url(#SVGID_23_)"/>
    <path id="svg_30" d="m342.473,178.787c-0.008,0.047 -0.015,0.092 -0.022,0.135c0.007,-0.042 0.014,-0.087 0.022,-0.135z" fill="url(#SVGID_24_)"/>
    <path id="svg_31" d="m342.528,178.458c-0.012,0.072 -0.023,0.142 -0.035,0.209c0.011,-0.064 0.022,-0.135 0.035,-0.209z" fill="url(#SVGID_25_)"/>
   </g>
   <path id="svg_32" d="m468.712,150.412l3.211,0.657l20.87,4.267c0,0 1.96,18.32 2.012,36.7c0.573,-1.344 1.149,-2.686 1.714,-4.03c0.102,-0.242 0.2,-0.485 0.301,-0.728c-0.627,-17.082 -2.013,-33.255 -2.013,-33.255l-21.381,-4.924l11.832,-10.176l-47.037,-13.916l-28.802,-7.76l0,0.685l28.802,8.716l42.756,13.625l-12.265,10.139z" fill="#342719"/>
   <path id="svg_33" d="m433.164,225.482c-19.453,-7.205 -47.551,-3.963 -59.799,16.211c-1.383,2.212 -1.493,4.847 -1.958,7.419l37.35,26.868l4.741,-5.722c0,0 13.875,-8.818 35.701,-24.671c-2.206,-9.017 -7.706,-16.865 -16.035,-20.105z" fill="#0069A1"/>
   <path id="svg_34" d="m477.926,176.597c-1.332,-5.482 -67.249,-58.667 -68.508,-58.524c9.505,6.426 26.521,36.568 48.961,45.088c2.631,0.999 -1.441,5.404 -3.242,7.925c-1.441,2.161 0.72,5.043 2.162,6.484c5.043,3.963 9.366,8.646 11.887,14.049c3.962,9.726 1.081,21.254 -1.801,31.701c-0.632,2.372 -0.223,4.675 0.526,6.97c8.58,-8.13 11.581,-13.112 11.581,-13.112l-1.566,-40.581z" fill="#0069A1"/>
   <g id="svg_35">
    <path id="svg_36" d="m334.318,218.293c-6.698,-17.374 -1.569,-68.114 -1.569,-68.114l20.869,-4.267l3.211,-0.657l-12.263,-10.138l42.756,-11.198l22.096,-5.845l0,-0.826l-22.096,5.029l-47.038,11.489l11.832,10.176l-21.381,4.924c0,0 -5.207,60.727 0,71.121c2.86,5.709 20.144,19.306 27.609,24.334c-5.753,-4.416 -20.146,-15.964 -24.026,-26.028z" fill="#42301D"/>
    <path id="svg_37" d="m342.72,176.597c5.695,-10.367 53.547,-46.882 66.697,-58.346c-0.003,-0.304 0.004,-0.699 0,-1.003c-44.936,32.667 -66.697,59.349 -66.697,59.349z" fill="#4B3724"/>
   </g>
   <path id="svg_38" d="m473.921,210.009c0,0 4.309,10.087 -1.816,16.571c-6.124,6.484 -65.179,47.483 -65.179,47.483l1.627,2.445c0,0 37.811,-24.705 53.564,-38.037c15.752,-13.332 16.81,-19.762 11.804,-28.462z" fill="#42301D"/>
   <path id="svg_39" d="m342.949,210.82c0,0 -4.308,10.087 1.816,16.571c6.124,6.484 65.179,47.483 65.179,47.483l-1.627,2.445c0,0 -37.811,-24.705 -53.564,-38.037c-15.752,-13.333 -16.81,-19.762 -11.804,-28.462z" fill="#42301D"/>
   <path id="svg_40" d="m476.251,169.753c0,0 -46.121,-36.196 -66.833,-52.505c0.06,0.796 -0.027,0.207 0,1.003c16.742,14.072 62.02,49.127 63.021,53.561c1.65,7.307 5.973,6.769 5.973,6.769l-2.161,-8.828z" fill="#342719"/>
   <g id="svg_41">
    <path id="svg_42" d="m297.563,197.424c0,0 14.416,25.468 17.169,35.799l1.326,3.71l-16.085,-0.774c0,0 -5.675,-31.474 -2.41,-38.735z" fill="#42301D"/>
    <g id="svg_43">
     <path id="svg_44" d="m322.43,179.196c4.359,-3.088 14.431,-5.381 19.15,-6.882c2.513,-1.186 0.089,-9.314 0.089,-9.314l-2.45,0c-4.201,4.55 -21.353,10.151 -21.353,10.151s-5.951,17.853 -8.051,21.003c-0.002,0.003 -0.004,0.005 -0.006,0.008c0.365,-0.307 0.729,-0.613 1.093,-0.917c4.684,-3.962 6.125,-10.447 11.528,-14.049z" fill="#F09663"/>
     <path id="svg_45" d="m298.613,201.855c0,0 12.576,-8.154 16.765,-14.153c4.189,-5.999 4.788,-7.36 7.965,-9.122c3.177,-1.762 13.074,-5.321 13.074,-5.321l10.153,-1.858l10.851,2.8l0.319,13.039l-9.771,-0.793l1.75,6.306l-3.69,21.703l-6.461,5.251c0,0 -4.55,5.601 -8.051,8.401c-3.5,2.801 -24.503,2.1 -24.503,2.1s-9.101,-3.849 -8.401,-28.353z" fill="#F7C3A0"/>
     <path id="svg_46" d="m347.97,186.448l9.771,0.793c0,0 -8.12,-4.727 -10.471,-4.988c-3.151,-0.35 -12.952,5.121 -12.952,5.121l13.483,-0.913l1.747,6.295l-1.593,9.365l-5.235,-3.416l-14.562,4.513l19.395,1.272l-1.695,9.968l-5.535,4.499c5.503,2.286 10.277,0.051 10.277,0.051l1.441,-14.224l1.36,-13.429l-5.589,-4.896l0.158,-0.011z" fill="#F09663"/>
    </g>
    <g id="svg_47">
     <path id="svg_48" d="m293.611,206.574c-3.163,-0.487 -5.669,1 -7.739,3.015c-2.776,20.517 11.69,29.693 11.69,29.693c1.739,-0.416 5.195,-2.1 8.282,-3.718c-5.751,-7.452 -5.891,-17.098 -9.351,-25.748c-0.72,-1.441 -1.441,-3.242 -2.882,-3.242z" fill="#42301D"/>
     <path id="svg_49" d="m297.563,197.424l-11.044,8.542c-0.277,1.245 -0.488,2.451 -0.646,3.623c2.07,-2.015 4.576,-3.502 7.739,-3.015c1.441,0 2.162,1.801 2.882,3.242c3.46,8.65 3.6,18.296 9.351,25.748c3.248,-1.702 6.088,-3.33 6.088,-3.33c-8.329,-5.125 -14.37,-34.81 -14.37,-34.81z" fill="#6F5848"/>
     <circle id="svg_50" r="2.936" cy="233.223" cx="302.909" fill="#342719"/>
    </g>
   </g>
   <g id="svg_51">
    <path id="svg_52" d="m519.205,197.424c0,0 -14.416,25.468 -17.169,35.799l-1.327,3.71l16.085,-0.774c0.001,0 5.676,-31.474 2.411,-38.735z" fill="#42301D"/>
    <g id="svg_53">
     <path id="svg_54" d="m494.337,179.196c-4.36,-3.088 -14.431,-5.381 -19.15,-6.882c-2.513,-1.186 -0.089,-9.314 -0.089,-9.314l2.451,0c4.201,4.55 21.353,10.151 21.353,10.151s5.951,17.853 8.051,21.003c0.001,0.003 0.004,0.005 0.005,0.008c-0.365,-0.307 -0.729,-0.613 -1.094,-0.917c-4.682,-3.962 -6.123,-10.447 -11.527,-14.049z" fill="#F09663"/>
     <path id="svg_55" d="m518.154,201.855c0,0 -12.576,-8.154 -16.765,-14.153c-4.189,-5.999 -4.789,-7.36 -7.966,-9.122c-3.177,-1.762 -13.074,-5.321 -13.074,-5.321l-10.152,-1.858l-10.852,2.8l-0.32,13.039l9.77,-0.793l-1.75,6.306l3.691,21.703l6.461,5.251c0,0 4.551,5.601 8.051,8.401c3.5,2.801 24.503,2.1 24.503,2.1s9.104,-3.849 8.403,-28.353z" fill="#F7C3A0"/>
     <path id="svg_56" d="m468.797,186.448l-9.77,0.793c0,0 8.121,-4.727 10.471,-4.988c3.151,-0.35 12.952,5.121 12.952,5.121l-13.483,-0.913l-1.748,6.295l1.593,9.365l5.235,-3.416l14.563,4.513l-19.395,1.272l1.695,9.968l5.536,4.499c-5.503,2.286 -10.277,0.051 -10.277,0.051l-1.441,-14.224l-1.36,-13.429l5.589,-4.896l-0.16,-0.011z" fill="#F09663"/>
    </g>
    <g id="svg_57">
     <path id="svg_58" d="m523.156,206.574c3.164,-0.487 5.669,1 7.739,3.015c2.777,20.517 -11.69,29.693 -11.69,29.693c-1.739,-0.416 -5.195,-2.1 -8.282,-3.718c5.751,-7.452 5.891,-17.098 9.351,-25.748c0.721,-1.441 1.441,-3.242 2.882,-3.242z" fill="#42301D"/>
     <path id="svg_59" d="m519.205,197.424l11.044,8.542c0.276,1.245 0.488,2.451 0.646,3.623c-2.07,-2.015 -4.576,-3.502 -7.739,-3.015c-1.441,0 -2.161,1.801 -2.882,3.242c-3.46,8.65 -3.6,18.296 -9.351,25.748c-3.247,-1.702 -6.088,-3.33 -6.088,-3.33c8.329,-5.125 14.37,-34.81 14.37,-34.81z" fill="#6F5848"/>
     <circle id="svg_60" r="2.936" cy="233.223" cx="513.859" fill="#342719"/>
    </g>
   </g>
  </g>
  <g id="webrtc">
   <g id="svg_61">
    <g id="svg_62">
     <path id="svg_63" d="m436.254,320.574c-3.983,6.001 -12.125,7.563 -18.186,3.489c-6.061,-4.074 -7.745,-12.242 -3.762,-18.243c3.983,-6.001 12.125,-7.563 18.186,-3.489c6.061,4.074 7.745,12.242 3.762,18.243z" fill="#FFCD05" opacity="0.9"/>
    </g>
    <ellipse id="svg_64" ry="13.067" rx="13.197" cy="330.822" cx="399.502" fill="#F26822"/>
    <ellipse id="svg_65" ry="13.067" rx="13.197" cy="330.822" cx="418.93" fill="#099948"/>
    <g id="svg_66">
     <path id="svg_67" d="m404.062,305.807c3.97,6.01 2.267,14.174 -3.803,18.234c-6.07,4.06 -14.208,2.48 -18.178,-3.53c-3.97,-6.01 -2.267,-14.174 3.803,-18.234c6.07,-4.06 14.208,-2.48 18.178,3.53z" fill="#0E89CB" opacity="0.9"/>
    </g>
    <ellipse id="svg_68" ry="13.067" rx="13.197" cy="302.268" cx="409.188" fill="#BE2026"/>
    <path id="svg_69" d="m431.089,325.182c-2.13,-4.384 -6.644,-7.418 -11.886,-7.418c-1.919,0 -3.736,0.414 -5.381,1.143c1,2.016 2.514,3.816 4.519,5.164c3.943,2.65 8.762,2.902 12.748,1.111z" fill="#4FB848"/>
    <path id="svg_70" d="m396.148,300.403c-0.092,0.624 -0.156,1.258 -0.156,1.908c0,6.14 4.283,11.276 10.047,12.677c0.472,-3.093 -0.133,-6.346 -1.977,-9.138c-1.906,-2.886 -4.777,-4.738 -7.914,-5.447z" fill="#6A0C0D"/>
    <path id="svg_71" d="m422.372,302.292c0,-0.639 -0.062,-1.263 -0.152,-1.878c-3.14,0.702 -6.014,2.547 -7.927,5.429c-1.85,2.787 -2.463,6.038 -1.997,9.133c5.779,-1.391 10.076,-6.534 10.076,-12.684z" fill="#ED1C24"/>
    <path id="svg_72" d="m405.706,330.822c0,3.406 1.327,6.497 3.483,8.823c2.156,-2.326 3.483,-5.417 3.483,-8.823s-1.327,-6.497 -3.483,-8.823c-2.157,2.326 -3.483,5.417 -3.483,8.823z" fill="#19763B"/>
    <path id="svg_73" d="m399.491,317.734c-5.242,0 -9.756,3.034 -11.886,7.418c3.961,1.747 8.73,1.486 12.643,-1.132c2.017,-1.349 3.539,-3.156 4.544,-5.181c-1.624,-0.706 -3.415,-1.105 -5.301,-1.105z" fill="#105F88"/>
   </g>
   <g id="svg_74">
    <path id="svg_75" d="m424.339,325.471c0,2.753 -2.179,4.985 -4.866,4.985l-23.49,0c-2.687,0 -4.866,-2.232 -4.866,-4.985l0,-15.08c0,-2.753 2.179,-4.985 4.866,-4.985l23.49,0c2.687,0 4.866,2.232 4.866,4.985l0,15.08z" fill="#FFFFFF"/>
    <polygon id="svg_76" points="396.373,330.464 412.003,330.456 393.784,339.079   " fill="#FFFFFF"/>
   </g>
   <text id="svg_77" font-size="60.5768" font-family="'Arial'" fill="#010101" transform="matrix(0.9937,0,0,1,256.7439,340.3555) ">Web</text>
   <text id="svg_78" font-size="60.5768" font-family="'Arial'" fill="#010101" transform="matrix(0.9937,0,0,1,438.9309,340.3555) ">RTC</text>
  </g>
  <rect id="svg_79" height="113.753" width="487.008" fill="none" y="378.33" x="179.338"/>
  <g id="svg_80" display="none"/>
  <rect id="svg_81" height="47.539" width="393.718" fill="none" y="402.379" x="207.634"/>
  <text transform="matrix(1,0,0,1,207.6331,412.5898) " id="explanatiion">
   <tspan id="svg_82" font-size="14.2616" font-family="'Arial'" fill="#FFFFFF" y="0" x="0">WebRTC</tspan>
   <tspan id="svg_83" font-size="14.2616" font-family="'Arial'" fill="#FFFFFF" y="0" x="59.414"/>
   <tspan id="svg_84" font-size="14.2616" font-family="'Arial'" fill="#FFFFFF" y="0" x="66.132">is</tspan>
   <tspan id="svg_85" font-size="14.2616" font-family="'Arial'" fill="#FFFFFF" y="0" x="78.026"/>
   <tspan id="svg_86" font-size="14.2616" font-family="'Arial'" fill="#FFFFFF" y="0" x="84.745">a</tspan>
   <tspan id="svg_87" font-size="14.2616" font-family="'Arial'" fill="#FFFFFF" y="0" x="92.676"/>
   <tspan id="svg_88" font-size="14.2616" font-family="'Arial'" fill="#FFFFFF" y="0" x="99.394">free,</tspan>
   <tspan id="svg_89" font-size="14.2616" font-family="'Arial'" fill="#FFFFFF" y="0" x="129.519"/>
   <tspan id="svg_90" font-size="14.2616" font-family="'Arial'" fill="#FFFFFF" y="0" x="136.237">open</tspan>
   <tspan id="svg_91" font-size="14.2616" font-family="'Arial'" fill="#FFFFFF" y="0" x="170.303"/>
   <tspan id="svg_92" font-size="14.2616" font-family="'Arial'" fill="#FFFFFF" y="0" x="177.021">project</tspan>
   <tspan id="svg_93" font-size="14.2616" font-family="'Arial'" fill="#FFFFFF" y="0" x="224.568"/>
   <tspan id="svg_94" font-size="14.2616" font-family="'Arial'" fill="#FFFFFF" y="0" x="231.286">that</tspan>
   <tspan id="svg_95" font-size="14.2616" font-family="'Arial'" fill="#FFFFFF" y="0" x="257.428"/>
   <tspan id="svg_96" font-size="14.2616" font-family="'Arial'" fill="#FFFFFF" y="0" x="264.146">provides</tspan>
   <tspan id="svg_97" font-size="14.2616" font-family="'Arial'" fill="#FFFFFF" y="0" x="323.588"/>
   <tspan id="svg_98" font-size="14.2616" font-family="'Arial'" fill="#FFFFFF" y="0" x="330.305">browsers</tspan>
   <tspan id="svg_99" font-size="14.2616" font-family="'Arial'" fill="#FFFFFF" y="20.072" x="0">and</tspan>
   <tspan id="svg_100" font-size="14.2616" font-family="'Arial'" fill="#FFFFFF" y="20.072" x="25.354"/>
   <tspan id="svg_101" font-size="14.2616" font-family="'Arial'" fill="#FFFFFF" y="20.072" x="30.721">mobile</tspan>
   <tspan id="svg_102" font-size="14.2616" font-family="'Arial'" fill="#FFFFFF" y="20.072" x="76.681"/>
   <tspan id="svg_103" font-size="14.2616" font-family="'Arial'" fill="#FFFFFF" y="20.072" x="82.046">applications</tspan>
   <tspan id="svg_104" font-size="14.2616" font-family="'Arial'" fill="#FFFFFF" y="20.072" x="165.255"/>
   <tspan id="svg_105" font-size="14.2616" font-family="'Arial'" fill="#FFFFFF" y="20.072" x="170.621">with</tspan>
   <tspan id="svg_106" font-size="14.2616" font-family="'Arial'" fill="#FFFFFF" y="20.072" x="199.138"/>
   <tspan id="svg_107" font-size="14.2616" font-family="'Arial'" fill="#FFFFFF" y="20.072" x="204.503">Real-Time</tspan>
   <tspan id="svg_108" font-size="14.2616" font-family="'Arial'" fill="#FFFFFF" y="20.072" x="272.662"/>
   <tspan id="svg_109" font-size="14.2616" font-family="'Arial'" fill="#FFFFFF" y="20.072" x="278.027">Communications</tspan>
  </text>
  <g id="_x32_">
   <path id="svg_110" d="m192.976,398.305c-0.032,0.073 -0.058,0.149 -0.095,0.219c-0.338,0.64 -0.695,1.269 -1.011,1.919c-0.365,0.751 -0.62,1.544 -0.777,2.366c-0.006,0.031 -0.009,0.062 -0.016,0.109c0.113,-0.027 0.217,-0.053 0.321,-0.076c1.539,-0.342 3.097,0.75 3.301,2.312c0.191,1.469 -0.718,2.769 -2.168,3.098c-1.523,0.346 -3.099,-0.751 -3.299,-2.299c-0.075,-0.582 -0.031,-1.164 0.035,-1.744c0.107,-0.945 0.327,-1.863 0.704,-2.739c0.455,-1.059 1.112,-1.96 2.071,-2.622c0.24,-0.165 0.478,-0.333 0.72,-0.495c0.054,-0.036 0.12,-0.054 0.18,-0.081c0.011,0.01 0.022,0.021 0.034,0.033z"/>
   <path id="svg_111" d="m199.061,398.308c-0.032,0.074 -0.06,0.15 -0.097,0.221c-0.339,0.644 -0.697,1.279 -1.016,1.932c-0.372,0.763 -0.623,1.571 -0.782,2.407c-0.002,0.012 0.002,0.026 0.003,0.038c0.202,-0.037 0.4,-0.089 0.601,-0.108c1.425,-0.128 2.64,0.749 2.976,2.143c0.366,1.52 -0.706,3.104 -2.254,3.329c-1.495,0.217 -2.828,-0.691 -3.146,-2.161c-0.058,-0.268 -0.067,-0.552 -0.063,-0.828c0.018,-1.118 0.192,-2.211 0.562,-3.269c0.461,-1.319 1.193,-2.441 2.374,-3.232c0.212,-0.142 0.419,-0.29 0.632,-0.431c0.053,-0.035 0.119,-0.052 0.179,-0.078c0.01,0.012 0.02,0.025 0.031,0.037z"/>
  </g>
  <g id="_x31_">
   <path id="svg_112" d="m615.339,435.179c0.032,-0.073 0.058,-0.149 0.095,-0.219c0.338,-0.64 0.695,-1.269 1.011,-1.92c0.365,-0.751 0.62,-1.544 0.778,-2.366c0.006,-0.031 0.009,-0.062 0.016,-0.109c-0.113,0.027 -0.217,0.053 -0.321,0.076c-1.539,0.342 -3.097,-0.75 -3.301,-2.312c-0.191,-1.469 0.718,-2.769 2.168,-3.098c1.523,-0.346 3.099,0.751 3.299,2.299c0.075,0.582 0.031,1.164 -0.035,1.744c-0.107,0.945 -0.327,1.863 -0.704,2.739c-0.455,1.059 -1.112,1.96 -2.071,2.622c-0.24,0.166 -0.478,0.333 -0.72,0.495c-0.054,0.036 -0.12,0.054 -0.18,0.081c-0.012,-0.01 -0.023,-0.021 -0.035,-0.032z"/>
   <path id="svg_113" d="m609.254,435.175c0.032,-0.074 0.06,-0.15 0.097,-0.221c0.339,-0.644 0.697,-1.279 1.016,-1.932c0.372,-0.763 0.623,-1.571 0.782,-2.407c0.002,-0.012 -0.002,-0.026 -0.003,-0.038c-0.202,0.037 -0.4,0.089 -0.601,0.108c-1.425,0.128 -2.64,-0.749 -2.976,-2.143c-0.366,-1.52 0.706,-3.104 2.253,-3.329c1.495,-0.217 2.828,0.691 3.146,2.161c0.058,0.268 0.067,0.552 0.063,0.828c-0.018,1.118 -0.192,2.211 -0.562,3.269c-0.461,1.319 -1.193,2.441 -2.374,3.232c-0.212,0.142 -0.419,0.29 -0.632,0.431c-0.053,0.035 -0.119,0.052 -0.179,0.078c-0.009,-0.012 -0.019,-0.024 -0.03,-0.037z"/>
  </g>
  <text font-size="14.7898" font-family="'Tahoma-Bold'" fill="#010101" transform="matrix(1,0,0,1,174.1066,279.871) " id="pwered">POWERED BY</text>
 </g>
</svg>